#N canvas 279 111 871 573 12;
#X obj 104 129 expr~ $v1 * 0.5 + 0.5;
#X floatatom 179 209 5 0 0 0 - - - 0;
#X obj 18 136 loadbang;
#X floatatom 103 55 5 0 0 0 - - - 0;
#X obj 104 29 5;
#N canvas 198 94 164 335 cubic 1;
#X obj 26 36 noise~;
#X obj 26 194 *~ 0.5;
#X obj 27 245 cos~;
#X obj 26 220 +~ 0.25;
#X obj 27 280 outlet~;
#X obj 26 62 lop~ 1;
#X obj 26 167 *~ 20;
#X obj 26 88 lop~ 1;
#X obj 26 114 lop~ 1;
#X obj 26 140 lop~ 1;
#X floatatom 109 49 5 0 0 0 - - - 0;
#X obj 107 24 inlet;
#X connect 0 0 5 0;
#X connect 1 0 3 0;
#X connect 2 0 4 0;
#X connect 3 0 2 0;
#X connect 5 0 7 0;
#X connect 6 0 1 0;
#X connect 7 0 8 0;
#X connect 8 0 9 0;
#X connect 9 0 6 0;
#X connect 10 0 5 1;
#X connect 10 0 7 1;
#X connect 10 0 8 1;
#X connect 10 0 9 1;
#X connect 11 0 10 0;
#X restore 104 88 pd cubic noise;
#X text 149 55 Freq (kind of... a Filter Coeff);
#X obj 106 307 expr~ $v1 * $v2 + $v3;
#X obj 105 367 osc~;
#X text 448 52 See also:;
#X obj 536 54 slop~, f 11;
#X floatatom 248 280 5 0 0 0 - - - 0;
#X obj 179 183 500;
#X text 224 210 Range;
#X text 291 277 Offset;
#X obj 105 391 output~;
#X text 444 19 Filters can also be used to smooth out transitions in control audio (= Slewing);
#X connect 0 0 7 0;
#X connect 1 0 7 1;
#X connect 2 0 4 0;
#X connect 2 0 12 0;
#X connect 3 0 5 0;
#X connect 4 0 3 0;
#X connect 5 0 0 0;
#X connect 7 0 8 0;
#X connect 8 0 15 0;
#X connect 11 0 7 2;
#X connect 12 0 1 0;
#X connect 12 0 11 0;
