#N canvas 171 75 924 773 12;
#X obj 84 418 vline~;
#X obj 84 444 tabread4~ testarray;
#X obj 245 460 vline~;
#X obj 245 484 cos~;
#X text 310 462 envelope;
#X obj 84 468 *~;
#X obj 234 130 r graindur;
#X floatatom 234 154 5 0 0 0 - - - 0;
#X text 322 281 (start \, end (start + dur in samples) \, time (ms));
#X obj 84 363 pack f f f;
#X obj 232 227 *;
#X obj 293 206 samplerate~;
#X obj 293 230 / 1000;
#X obj 234 177 t f b;
#X floatatom 232 251 5 0 0 0 - - - 0;
#X obj 81 163 i;
#X floatatom 81 187 9 0 0 0 - - - 0;
#X obj 110 249 +;
#X obj 171 246 f;
#X obj 109 220 t f b;
#X floatatom 110 272 7 0 0 0 - - - 0;
#X msg 84 397 \$1 \, \$2 \$3;
#X obj 245 404 pack -0.25 0.25 f;
#X msg 246 432 \$1 \, \$2 \$3;
#X obj 340 371 f;
#X obj 339 341 r graindur;
#X obj 242 376 bng 19 250 50 0 empty empty empty 0 -10 0 12 #fcfcfc #000000 #000000;
#X obj 167 338 *;
#X obj 204 276 r rate;
#X obj 204 300 t b f;
#X obj 80 117 inlet;
#X obj 84 492 outlet~;
#X connect 0 0 1 0;
#X connect 1 0 5 0;
#X connect 2 0 3 0;
#X connect 3 0 5 1;
#X connect 5 0 31 0;
#X connect 6 0 7 0;
#X connect 7 0 13 0;
#X connect 7 0 27 0;
#X connect 9 0 21 0;
#X connect 9 0 26 0;
#X connect 10 0 14 0;
#X connect 11 0 12 0;
#X connect 12 0 10 1;
#X connect 13 0 10 0;
#X connect 13 1 11 0;
#X connect 14 0 18 1;
#X connect 15 0 16 0;
#X connect 16 0 19 0;
#X connect 16 0 9 0;
#X connect 17 0 20 0;
#X connect 18 0 17 1;
#X connect 19 0 17 0;
#X connect 19 1 18 0;
#X connect 20 0 9 1;
#X connect 21 0 0 0;
#X connect 22 0 23 0;
#X connect 23 0 2 0;
#X connect 24 0 22 2;
#X connect 25 0 24 0;
#X connect 26 0 22 0;
#X connect 27 0 9 2;
#X connect 28 0 29 0;
#X connect 29 0 27 0;
#X connect 29 1 27 1;
#X connect 30 0 15 0;
