#N canvas 58 89 924 773 12;
#X obj 90 624 vline~;
#X obj 90 650 tabread4~ testarray;
#X obj 251 666 vline~;
#X obj 251 690 cos~;
#X text 316 668 envelope;
#X obj 89 688 *~;
#X obj 260 9 r graindur;
#X floatatom 234 183 5 0 0 0 - - - 0;
#X text 268 344 (start \, end (start + dur in samples) \, time (ms));
#X obj 90 569 pack f f f;
#X obj 231 286 *;
#X obj 292 265 samplerate~;
#X obj 292 289 / 1000;
#X obj 233 236 t f b;
#X floatatom 231 310 5 0 0 0 - - - 0;
#X obj 78 40 i;
#X floatatom 80 237 9 0 0 0 - - - 0;
#X obj 109 308 +;
#X obj 170 305 f;
#X obj 108 279 t f b;
#X floatatom 109 331 7 0 0 0 - - - 0;
#X msg 90 603 \$1 \, \$2 \$3;
#X obj 251 610 pack -0.25 0.25 f;
#X msg 252 638 \$1 \, \$2 \$3;
#X obj 366 574 f;
#X obj 248 582 bng 19 250 50 0 empty empty empty 0 -10 0 12 #fcfcfc #000000 #000000;
#X obj 173 492 *;
#X obj 212 393 r rate;
#X obj 196 464 t b f;
#X obj 78 12 inlet;
#X obj 89 712 outlet~;
#N canvas 988 118 487 312 random 0;
#X obj 59 10 inlet;
#X obj 338 89 inlet;
#X obj 59 73 random 100;
#X obj 59 97 / 100;
#X obj 60 140 *;
#X obj 60 164 -;
#X obj 60 188 *;
#X obj 60 212 +;
#X obj 60 236 outlet;
#X obj 164 14 inlet;
#X obj 164 38 t f f f, f 22;
#X obj 183 82 * 0.5;
#X connect 0 0 2 0;
#X connect 1 0 6 1;
#X connect 2 0 3 0;
#X connect 3 0 4 0;
#X connect 4 0 5 0;
#X connect 5 0 6 0;
#X connect 6 0 7 0;
#X connect 7 0 8 0;
#X connect 9 0 10 0;
#X connect 10 0 4 1;
#X connect 10 1 11 0;
#X connect 10 2 7 1;
#X connect 11 0 5 1;
#X restore 231 80 pd random;
#X obj 231 112 t f f, f 27;
#X obj 358 32 r graindurrand;
#X floatatom 357 61 5 0 0 0 - - - 0;
#N canvas 988 118 487 312 random 1;
#X obj 59 10 inlet;
#X obj 338 89 inlet;
#X obj 59 73 random 100;
#X obj 59 97 / 100;
#X obj 60 140 *;
#X obj 60 164 -;
#X obj 60 188 *;
#X obj 60 212 +;
#X obj 60 236 outlet;
#X obj 164 14 inlet;
#X obj 164 38 t f f f, f 22;
#X obj 183 82 * 0.5;
#X connect 0 0 2 0;
#X connect 1 0 6 1;
#X connect 2 0 3 0;
#X connect 3 0 4 0;
#X connect 4 0 5 0;
#X connect 5 0 6 0;
#X connect 6 0 7 0;
#X connect 7 0 8 0;
#X connect 9 0 10 0;
#X connect 10 0 4 1;
#X connect 10 1 11 0;
#X connect 10 2 7 1;
#X connect 11 0 5 1;
#X restore 288 441 pd random;
#X obj 78 64 t f b b;
#X obj 102 97 s \$0-bang;
#X obj 287 408 r \$0-bang;
#X obj 396 405 r transp-rand;
#X connect 0 0 1 0;
#X connect 1 0 5 0;
#X connect 2 0 3 0;
#X connect 3 0 5 1;
#X connect 5 0 30 0;
#X connect 6 0 31 1;
#X connect 7 0 13 0;
#X connect 7 0 26 0;
#X connect 9 0 21 0;
#X connect 9 0 25 0;
#X connect 10 0 14 0;
#X connect 11 0 12 0;
#X connect 12 0 10 1;
#X connect 13 0 10 0;
#X connect 13 1 11 0;
#X connect 14 0 18 1;
#X connect 15 0 36 0;
#X connect 16 0 19 0;
#X connect 16 0 9 0;
#X connect 17 0 20 0;
#X connect 18 0 17 1;
#X connect 19 0 17 0;
#X connect 19 1 18 0;
#X connect 20 0 9 1;
#X connect 21 0 0 0;
#X connect 22 0 23 0;
#X connect 23 0 2 0;
#X connect 24 0 22 2;
#X connect 25 0 22 0;
#X connect 26 0 9 2;
#X connect 27 0 35 1;
#X connect 28 0 26 0;
#X connect 28 1 26 1;
#X connect 29 0 15 0;
#X connect 31 0 32 0;
#X connect 32 0 7 0;
#X connect 32 1 24 0;
#X connect 33 0 31 2;
#X connect 33 0 34 0;
#X connect 35 0 28 0;
#X connect 36 0 16 0;
#X connect 36 1 31 0;
#X connect 36 1 37 0;
#X connect 38 0 35 0;
#X connect 39 0 35 2;
