#N canvas 195 216 635 306 12;
#N canvas 266 304 150 252 transp 0;
#X obj 19 148 pow 2;
#X obj 48 122 / 12;
#X obj 19 186 outlet;
#X obj 18 96 t b f;
#X msg 18 121 2;
#X obj 19 60 inlet;
#X connect 0 0 2 0;
#X connect 1 0 0 1;
#X connect 3 0 4 0;
#X connect 3 1 1 0;
#X connect 4 0 0 0;
#X connect 5 0 3 0;
#X restore 442 43 pd transp;
