#N canvas 519 158 754 740 12;
#X obj 97 144 select 0 1;
#X msg 99 436 stop;
#X obj 181 388 del;
#X obj 226 167 change;
#X msg 137 471 start 0;
#X obj 97 66 tgl 15 0 empty tog empty 17 7 0 10 #fcfcfc #000000 #000000 0 1;
#X obj 203 87 hsl 128 15 100 10000 0 0 empty dur empty -2 -8 0 10 #fcfcfc #000000 #000000 0 1;
#X floatatom 200 140 5 0 0 1 milliseconds - - 0;
#X obj 41 573 tabwrite~ sf-buffer;
#X obj 41 398 adc~ 1;
#X text 78 18 Write microphone input to buffer;
#X text 282 169 The [change] object outputs its input only when it changes.;
#X obj 227 346 s sf-buffer;
#X msg 227 319 resize \$1;
#X text 309 319 send resize message (in samples) to buffer;
#X text 214 388 Stops the recording at the end of the buffer;
#X text 200 472 Starts the recording from 0;
#X obj 200 109 int;
#X obj 456 30 loadbang;
#X msg 456 56 \; pd dsp 1 \; dur 4000 \;;
#X msg 181 419 \; tog 0;
#X text 286 232 convert to samples;
#X floatatom 227 293 10 0 0 0 - - - 0;
#X obj 189 573 table sf-buffer;
#X obj 97 95 t f b;
#X obj 226 234 *;
#X obj 267 214 samplerate~;
#X obj 227 192 t f b;
#X msg 205 44 5000;
#X connect 0 0 1 0;
#X connect 0 1 4 0;
#X connect 0 1 2 0;
#X connect 1 0 8 0;
#X connect 2 0 1 0;
#X connect 2 0 20 0;
#X connect 3 0 27 0;
#X connect 4 0 8 0;
#X connect 5 0 24 0;
#X connect 6 0 17 0;
#X connect 7 0 3 0;
#X connect 7 0 2 1;
#X connect 9 0 8 0;
#X connect 13 0 12 0;
#X connect 17 0 7 0;
#X connect 18 0 19 0;
#X connect 22 0 13 0;
#X connect 24 0 0 0;
#X connect 24 1 7 0;
#X connect 25 0 22 0;
#X connect 26 0 25 1;
#X connect 27 0 25 0;
#X connect 27 1 26 0;
#X connect 28 0 6 0;
