#N canvas 212 38 910 870 12;
#X text 14 16 Glitchy Delay;
#X obj 586 571 delwrite~ glitchy 2000;
#X text 592 491 audio in;
#X obj 603 512 adc~;
#X floatatom 584 416 0 0 0 0 - - - 0;
#X obj 585 466 line~;
#X obj 585 542 *~;
#X obj 584 280 vsl 15 128 0 1 0 0 empty feedback empty 0 -8 0 8 #fcfcfc #000000 #000000 0 1;
#X text 10 43 input;
#X obj 585 439 pack 0 50;
#X obj 158 365 delread~ glitchy 500;
#X obj 161 531 *~;
#X floatatom 25 418 0 0 0 0 - - - 0;
#X obj 26 468 line~;
#X obj 26 281 vsl 15 128 0 1 0 0 empty feedback empty 0 -8 0 8 #fcfcfc #000000 #000000 0 1;
#X obj 26 441 pack 0 50;
#X obj 160 574 dac~;
#X floatatom 367 405 0 0 0 0 - - - 0;
#X obj 368 455 line~;
#X obj 367 269 vsl 15 128 0 1 0 0 empty feedback empty 0 -8 0 8 #fcfcfc #000000 #000000 0 1;
#X obj 368 428 pack 0 50;
#X obj 349 488 *~;
#X obj 163 24 tgl 19 0 empty empty empty 0 -10 0 12 #fcfcfc #000000 #000000 0 1;
#X obj 163 48 metro 200;
#X text 33 141 random numbers;
#X text 36 163 10-500;
#X obj 160 300 + 10;
#X obj 160 268 random 491;
#X floatatom 160 324 5 0 0 0 - - - 0;
#X floatatom 361 241 5 0 0 0 - - - 0;
#X obj 361 192 / 100;
#X floatatom 482 115 5 0 0 0 - - - 0;
#X obj 361 168 random 31;
#X obj 361 216 + 0.7;
#X obj 482 90 + 100;
#X text 571 61 random metro trimes 100-500 ms;
#X obj 482 66 random 1001;
#X connect 3 0 6 1;
#X connect 4 0 9 0;
#X connect 5 0 6 0;
#X connect 6 0 1 0;
#X connect 7 0 4 0;
#X connect 9 0 5 0;
#X connect 10 0 11 0;
#X connect 10 0 21 0;
#X connect 11 0 16 0;
#X connect 11 0 16 1;
#X connect 12 0 15 0;
#X connect 13 0 11 1;
#X connect 14 0 12 0;
#X connect 15 0 13 0;
#X connect 17 0 20 0;
#X connect 18 0 21 1;
#X connect 19 0 17 0;
#X connect 20 0 18 0;
#X connect 21 0 1 0;
#X connect 22 0 23 0;
#X connect 23 0 27 0;
#X connect 23 0 32 0;
#X connect 23 0 36 0;
#X connect 26 0 28 0;
#X connect 27 0 26 0;
#X connect 28 0 10 0;
#X connect 29 0 19 0;
#X connect 30 0 33 0;
#X connect 31 0 23 1;
#X connect 32 0 30 0;
#X connect 33 0 29 0;
#X connect 34 0 31 0;
#X connect 36 0 34 0;
