#N canvas 84 158 1038 749 12;
#X text 48 22 RICERCAR – Live-Electronics;
#X text 527 60 - Input;
#X text 527 303 -Output;
#X text 530 90 - Volume Settings;
#X obj 526 577 dac~ 1 2;
#X obj 683 388 r~ input;
#X obj 689 507 *~;
#X obj 821 384 vsl 19 162 0 1.2 0 0 empty empty empty 0 -9 0 12 #fcfcfc #000000 #000000 0 1;
#X obj 822 572 pack f 10;
#X obj 822 596 line~;
#N canvas 78 133 425 427 input 0;
#X obj 196 38 adc~ 1;
#X obj 126 113 vu 19 80 in-vu empty -1 -10 0 12 #404040 #000000 0 0;
#X obj 180 162 env~, f 7;
#X obj 180 186 - 100;
#X obj 197 97 *~;
#X obj 103 113 vsl 19 80 0 1.2 0 0 in-vol empty empty 0 -9 0 12 #fcfcfc #000000 #000000 0 1;
#X obj 315 62 pack f 10;
#X obj 315 86 line~;
#X obj 207 130 s~ input;
#X obj 180 210 s in-vu;
#X obj 314 31 r in-vol;
#X connect 0 0 4 0;
#X connect 2 0 3 0;
#X connect 3 0 9 0;
#X connect 4 0 2 0;
#X connect 4 0 8 0;
#X connect 6 0 7 0;
#X connect 7 0 4 1;
#X connect 10 0 6 0;
#X coords 0 -1 1 1 50 100 2 100 100;
#X restore 44 88 pd input;
#X text 534 111 delay:;
#X text 581 128 3800 ms on the Left Channel;
#X text 584 146 4000 ms on the right channel;
#N canvas 828 273 684 487 delay 0;
#X obj 74 101 delwrite~ delayL 5000;
#X obj 250 99 delwrite~ delayR 5000;
#X obj 74 13 r~ input;
#X obj 79 205 delread~ delayL 3800;
#X obj 251 204 delread~ delayR 4000;
#X obj 79 229 s~ delayL;
#X obj 251 228 s~ delayR;
#X connect 2 0 0 0;
#X connect 2 0 1 0;
#X connect 3 0 5 0;
#X connect 4 0 6 0;
#X restore 166 107 pd delay;
#X obj 517 442 r~ delayL;
#X obj 594 441 r~ delayR;
#X obj 518 497 *~;
#X obj 399 321 vsl 19 162 0 1.2 0 0 empty empty empty 0 -9 0 12 #fcfcfc #000000 #000000 0 1;
#X obj 400 509 pack f 10;
#X obj 400 533 line~;
#X obj 593 499 *~;
#X text 811 36 MIDI_Anbindung;
#X text 527 201 Pitchshift;
#X text 528 238 Reverb;
#X text 530 272 Mixer;
#X connect 5 0 6 0;
#X connect 6 0 4 0;
#X connect 6 0 4 1;
#X connect 7 0 8 0;
#X connect 8 0 9 0;
#X connect 9 0 6 1;
#X connect 15 0 17 0;
#X connect 16 0 21 0;
#X connect 17 0 4 0;
#X connect 18 0 19 0;
#X connect 19 0 20 0;
#X connect 20 0 17 1;
#X connect 20 0 21 1;
#X connect 21 0 4 1;
