#N canvas 0 25 1406 979 12;
#N canvas 543 109 983 557 input 0;
#X obj 196 38 adc~ 1;
#X obj 126 113 vu 19 80 in-vu empty -1 -10 0 12 #404040 #000000 0 0;
#X obj 180 201 env~, f 7;
#X obj 180 225 - 100;
#X obj 197 97 *~;
#X obj 103 113 vsl 19 80 0 1.2 0 0 in-vol empty empty 0 -9 0 12 #fcfcfc #000000 #000000 0 1;
#X obj 315 62 pack f 10;
#X obj 315 86 line~;
#X obj 244 158 s~ input;
#X obj 180 249 s in-vu;
#X obj 314 31 r in-vol;
#X obj 199 125 hip~ 150;
#X connect 0 0 4 0;
#X connect 2 0 3 0;
#X connect 3 0 9 0;
#X connect 4 0 11 0;
#X connect 6 0 7 0;
#X connect 7 0 4 1;
#X connect 10 0 6 0;
#X connect 11 0 8 0;
#X connect 11 0 2 0;
#X coords 0 -1 1 1 50 100 2 100 100;
#X restore 44 88 pd input;
#N canvas 209 178 1088 693 delay 0;
#X obj 68 206 delwrite~ delayL 5000;
#X obj 360 203 delwrite~ delayR 5000;
#X obj 65 13 r~ input;
#X obj 75 251 delread~ delayL 3800;
#X obj 353 259 delread~ delayR 4000;
#X obj 75 311 s~ delayL;
#X obj 353 314 s~ delayR;
#X obj 95 280 s~ feedbackL;
#X obj 394 287 s~ feedbackR;
#X obj 120 57 r~ feedbackL;
#X obj 430 77 r~ feedbackR;
#X obj 119 125 *~;
#X obj 226 13 r feedback;
#X obj 361 19 r~ input;
#X obj 226 37 clip 0 1;
#X obj 226 60 pack f 10;
#X obj 226 83 line~;
#X obj 429 143 *~;
#X connect 2 0 0 0;
#X connect 3 0 5 0;
#X connect 3 0 7 0;
#X connect 4 0 6 0;
#X connect 4 0 8 0;
#X connect 9 0 11 0;
#X connect 10 0 17 0;
#X connect 11 0 0 0;
#X connect 12 0 14 0;
#X connect 13 0 1 0;
#X connect 14 0 15 0;
#X connect 15 0 16 0;
#X connect 16 0 11 1;
#X connect 16 0 17 1;
#X connect 17 0 1 0;
#X restore 40 200 pd delay;
#X text 48 22 RICERCARE – Live-Electronics;
#X obj 257 86 vsl 19 162 0 1 0 0 feedback midifb FEEDBACK 0 -10 0 12 #fcfcfc #000000 #000000 0 1;
#X floatatom 257 258 5 0 0 0 - - - 0;
#X obj 40 223 pitchshift 1;
#X obj 40 247 pitchshift 2;
#N canvas 15 25 1905 964 mix 0;
#X obj 129 446 dac~ 1 2, f 34;
#X obj 205 98 r~ input;
#X obj 204 127 *~;
#X obj 281 99 pack f 10;
#X obj 281 123 line~;
#X obj 22 101 r~ delayL;
#X obj 104 100 r~ delayR;
#X obj 21 127 *~;
#X obj 27 38 pack f 10;
#X obj 27 58 line~;
#X obj 101 129 *~;
#X obj 446 181 *~;
#X obj 465 41 pack f 10;
#X obj 465 65 line~;
#X obj 516 183 *~;
#X obj 446 118 r~ 1-pitchshiftout, f 7;
#X obj 516 103 r~ 2-pitchshiftout, f 10;
#X obj 128 410 *~;
#X obj 363 407 *~;
#X obj 27 15 r delayvol;
#X obj 280 75 r livevol;
#X obj 465 17 r pitchshiftvol;
#X obj 381 341 pack f 10;
#X obj 381 365 line~;
#X obj 381 314 r master;
#X text 672 369 Vol (db) liveliness dampfreq dampfactor;
#X obj 169 354 rev3~ 0 95 2000 100;
#X obj 21 173 throw~ toMasterL, f 9;
#X obj 101 174 throw~ toMasterR, f 9;
#X obj 276 176 throw~ toMasterL, f 9;
#X obj 201 175 throw~ toMasterR, f 9;
#X obj 129 254 catch~ toMasterL, f 9;
#X obj 341 245 catch~ toMasterR, f 9;
#X obj 216 236 r revvol;
#X obj 216 259 rmstodb;
#X obj 216 282 pack f 10;
#X obj 216 305 line;
#X obj 446 226 throw~ toMasterL, f 9;
#X obj 517 227 throw~ toMasterR, f 9;
#X obj 34 387 env~, f 7;
#X obj 34 411 - 100;
#X obj 34 435 s vuMasterL;
#X obj 427 389 env~, f 7;
#X obj 427 413 - 100;
#X obj 427 437 s vuMasterR;
#X connect 1 0 2 0;
#X connect 2 0 30 0;
#X connect 2 0 29 0;
#X connect 3 0 4 0;
#X connect 4 0 2 1;
#X connect 5 0 7 0;
#X connect 6 0 10 0;
#X connect 7 0 27 0;
#X connect 8 0 9 0;
#X connect 9 0 7 1;
#X connect 9 0 10 1;
#X connect 10 0 28 0;
#X connect 11 0 37 0;
#X connect 12 0 13 0;
#X connect 13 0 11 1;
#X connect 13 0 14 1;
#X connect 14 0 38 0;
#X connect 15 0 11 0;
#X connect 16 0 14 0;
#X connect 17 0 0 0;
#X connect 17 0 39 0;
#X connect 18 0 0 1;
#X connect 18 0 42 0;
#X connect 19 0 8 0;
#X connect 20 0 3 0;
#X connect 21 0 12 0;
#X connect 22 0 23 0;
#X connect 23 0 18 1;
#X connect 23 0 17 1;
#X connect 24 0 22 0;
#X connect 26 0 17 0;
#X connect 26 1 18 0;
#X connect 31 0 17 0;
#X connect 31 0 26 0;
#X connect 32 0 18 0;
#X connect 32 0 26 1;
#X connect 33 0 34 0;
#X connect 34 0 35 0;
#X connect 35 0 36 0;
#X connect 36 0 26 2;
#X connect 39 0 40 0;
#X connect 40 0 41 0;
#X connect 42 0 43 0;
#X connect 43 0 44 0;
#X restore 41 294 pd mix;
#X obj 210 86 vsl 19 162 0 1 0 0 delayvol mididelay DELAY 0 -10 0 12 #fcfcfc #000000 #000000 0 1;
#X obj 174 87 vsl 19 162 0 1 0 0 livevol midilive LIVE 0 -10 0 12 #fcfcfc #000000 #000000 0 1;
#X obj 330 87 vsl 19 162 0 1 0 0 pitchshiftvol midips PITCHSHIFT 0 -10 0 12 #fcfcfc #000000 #000000 0 1;
#X obj 525 85 vsl 30 162 0 1 0 0 master midimaster MASTER 0 -10 0 12 #ff0400 #ffe3c6 #000000 0 1;
#X floatatom 310 364 5 0 0 0 - 1-transposition - 0;
#X floatatom 357 363 5 0 0 0 - 2-transposition - 0;
#N canvas 0 132 832 475 transp 0;
#X text 333 60 ARM 1: pitch L: -0.5 halftones \, delay L: 200 msec. \, pitch R: +0.5 halftones \, delayR: 150 msec \; ARM 2: pitch L: -1.5 halftones \, delay L: 200 msec. \, pitch R: +1.5 halftones \, delayR: 150 msec \; ARM 3: pitch L: -12 halftones \, delay L: 200 msec. \, pitch R: -7 halftones \, delayR: 150 msec \; ARM 4: pitch L: -12 halftones \, delay L: 200 msec. \, pitch R: +9 halftones \, delayR: 150 msec \; ARM 5: pitch L: -12 halftones \, delay L: 400 msec. \, pitch R: +12 halftones \, delayR: 250 msec \;;
#X msg 39 118 \; 1-transposition -0.5 \; 2-transposition 0.5;
#X msg 34 185 \; 1-transposition -1.5 \; 2-transposition 1.5;
#X text 197 127 ARM 1;
#X text 200 195 ARM 2;
#X text 203 266 ARM 3;
#X msg 37 256 \; 1-transposition -12 \; 2-transposition -7;
#X msg 41 320 \; 1-transposition -12 \; 2-transposition 9;
#X text 207 330 ARM 4;
#X msg 42 385 \; 1-transposition -12 \; 2-transposition 12;
#X text 208 395 ARM 5;
#X obj 43 6 r harmonizer;
#X floatatom 43 29 5 0 0 0 - - - 0;
#X obj 42 60 select 0 1 2 3 4;
#X obj 670 357 s fenster;
#X floatatom 670 330 6 0 0 2 Fenster\ in\ msec - - 0;
#X obj 672 271 loadbang;
#X obj 672 294 50;
#X connect 11 0 12 0;
#X connect 12 0 13 0;
#X connect 13 0 1 0;
#X connect 13 1 2 0;
#X connect 13 2 6 0;
#X connect 13 3 7 0;
#X connect 13 4 9 0;
#X connect 15 0 14 0;
#X connect 16 0 17 0;
#X connect 17 0 15 0;
#X restore 40 270 pd transp;
#X obj 171 356 hradio 25 1 0 5 harmonizer midiharm HARMONIZER 0 -10 0 12 #fcfcfc #000000 #000000 0;
#X floatatom 171 389 5 0 0 0 - - - 0;
#X obj 412 86 vsl 19 162 0 1 0 0 revvol midirev REVERB 0 -9 0 12 #fcfcfc #000000 #000000 0 1;
#X floatatom 412 256 5 0 0 0 - - - 0;
#N canvas 295 320 917 673 lib 0;
#X floatatom 60 235 5 0 0 0 - - - 0;
#X floatatom 129 235 5 0 0 0 - - - 0;
#X obj 60 63 vsl 19 162 -12 12 0 0 1-transposition empty 1-Transp 0 -9 0 12 #fcfcfc #000000 #000000 0 1;
#X obj 129 63 vsl 19 162 -12 12 0 0 2-transposition empty 2-Transp 0 -9 0 12 #fcfcfc #000000 #000000 0 1;
#X connect 2 0 0 0;
#X connect 3 0 1 0;
#X restore 40 320 pd lib;
#N canvas 866 86 1691 891 midi 1;
#X obj 491 21 ctlin, f 16;
#X floatatom 491 52 5 0 0 0 - - - 0;
#X floatatom 543 77 5 0 0 0 - - - 0;
#X obj 643 256 ctlin 62;
#X floatatom 643 279 5 0 0 0 - - - 0;
#X obj 643 301 / 127;
#X floatatom 643 324 5 0 0 0 - - - 0;
#X obj 643 346 s midimaster;
#X text 639 222 master;
#X floatatom 35 269 5 0 0 0 - - - 0;
#X obj 35 291 / 127;
#X floatatom 35 314 5 0 0 0 - - - 0;
#X obj 35 246 ctlin 19;
#X obj 35 336 s midilive;
#X floatatom 180 270 5 0 0 0 - - - 0;
#X obj 180 292 / 127;
#X floatatom 180 315 5 0 0 0 - - - 0;
#X obj 180 247 ctlin 23;
#X obj 180 337 s mididelay;
#X floatatom 296 270 5 0 0 0 - - - 0;
#X obj 296 292 / 127;
#X floatatom 296 315 5 0 0 0 - - - 0;
#X obj 296 247 ctlin 27;
#X obj 296 337 s midifb;
#X floatatom 398 267 5 0 0 0 - - - 0;
#X obj 398 289 / 127;
#X floatatom 398 312 5 0 0 0 - - - 0;
#X obj 398 244 ctlin 31;
#X obj 398 334 s midips;
#X floatatom 499 267 5 0 0 0 - - - 0;
#X obj 499 289 / 127;
#X floatatom 499 312 5 0 0 0 - - - 0;
#X obj 499 244 ctlin 49;
#X obj 499 334 s midirev;
#X obj 24 18 notein, f 16;
#X obj 22 46 stripnote;
#X floatatom 22 69 5 0 0 0 - - - 0;
#X obj 26 172 s midiharm;
#X obj 22 91 sel 3 6 9 12 15;
#X msg 20 119 0;
#X msg 55 120 1;
#X msg 91 120 2;
#X msg 131 122 3;
#X msg 169 122 4;
#X connect 0 0 1 0;
#X connect 0 1 2 0;
#X connect 3 0 4 0;
#X connect 4 0 5 0;
#X connect 5 0 6 0;
#X connect 6 0 7 0;
#X connect 9 0 10 0;
#X connect 10 0 11 0;
#X connect 11 0 13 0;
#X connect 12 0 9 0;
#X connect 14 0 15 0;
#X connect 15 0 16 0;
#X connect 16 0 18 0;
#X connect 17 0 14 0;
#X connect 19 0 20 0;
#X connect 20 0 21 0;
#X connect 21 0 23 0;
#X connect 22 0 19 0;
#X connect 24 0 25 0;
#X connect 25 0 26 0;
#X connect 26 0 28 0;
#X connect 27 0 24 0;
#X connect 29 0 30 0;
#X connect 30 0 31 0;
#X connect 31 0 33 0;
#X connect 32 0 29 0;
#X connect 34 0 35 0;
#X connect 34 1 35 1;
#X connect 35 0 36 0;
#X connect 36 0 38 0;
#X connect 38 0 39 0;
#X connect 38 1 40 0;
#X connect 38 2 41 0;
#X connect 38 3 42 0;
#X connect 38 4 43 0;
#X connect 39 0 37 0;
#X connect 40 0 37 0;
#X connect 41 0 37 0;
#X connect 42 0 37 0;
#X connect 43 0 37 0;
#X restore 39 351 pd midi;
#X obj 580 87 vu 19 160 vuMasterL empty -1 -10 0 12 #404040 #000000 0 0;
#X obj 602 87 vu 19 160 vuMasterR empty -1 -10 0 12 #404040 #000000 1 0;
#X connect 3 0 4 0;
#X connect 15 0 16 0;
#X connect 17 0 18 0;
#X coords 0 0 0.5 0.5 0 0 0;
