#N canvas 347 38 1161 869 12;
#X text 774 114 -Output;
#N canvas 78 133 983 557 input 0;
#X obj 196 38 adc~ 1;
#X obj 126 113 vu 19 80 in-vu empty -1 -10 0 12 #404040 #000000 0 0;
#X obj 180 162 env~, f 7;
#X obj 180 186 - 100;
#X obj 197 97 *~;
#X obj 103 113 vsl 19 80 0 1.2 0 0 in-vol empty empty 0 -9 0 12 #fcfcfc #000000 #000000 0 1;
#X obj 315 62 pack f 10;
#X obj 315 86 line~;
#X obj 207 130 s~ input;
#X obj 180 210 s in-vu;
#X obj 314 31 r in-vol;
#X connect 0 0 4 0;
#X connect 2 0 3 0;
#X connect 3 0 9 0;
#X connect 4 0 2 0;
#X connect 4 0 8 0;
#X connect 6 0 7 0;
#X connect 7 0 4 1;
#X connect 10 0 6 0;
#X coords 0 -1 1 1 50 100 2 100 100;
#X restore 44 88 pd input;
#N canvas 209 178 1088 693 delay 0;
#X obj 68 206 delwrite~ delayL 5000;
#X obj 360 203 delwrite~ delayR 5000;
#X obj 65 13 r~ input;
#X obj 75 251 delread~ delayL 3800;
#X obj 353 259 delread~ delayR 4000;
#X obj 75 311 s~ delayL;
#X obj 353 314 s~ delayR;
#X obj 95 280 s~ feedbackL;
#X obj 394 287 s~ feedbackR;
#X obj 120 57 r~ feedbackL;
#X obj 430 77 r~ feedbackR;
#X obj 119 125 *~;
#X obj 226 13 r feedback;
#X obj 361 19 r~ input;
#X obj 226 37 clip 0 1;
#X obj 226 60 pack f 10;
#X obj 226 83 line~;
#X obj 429 143 *~;
#X connect 2 0 0 0;
#X connect 3 0 5 0;
#X connect 3 0 7 0;
#X connect 4 0 6 0;
#X connect 4 0 8 0;
#X connect 9 0 11 0;
#X connect 10 0 17 0;
#X connect 11 0 0 0;
#X connect 12 0 14 0;
#X connect 13 0 1 0;
#X connect 14 0 15 0;
#X connect 15 0 16 0;
#X connect 16 0 11 1;
#X connect 16 0 17 1;
#X connect 17 0 1 0;
#X restore 40 200 pd delay;
#X text 772 44 MIDI_Anbindung;
#X text 776 74 Reverb;
#X text 48 22 RICERCARE – Live-Electronics;
#X obj 274 124 vsl 19 162 0 1 0 0 feedback empty FEEDBACK 0 -10 0 12 #fcfcfc #000000 #000000 0 1;
#X floatatom 274 294 5 0 0 0 - - - 0;
#X obj 40 224 pitchshift 1;
#X obj 41 247 pitchshift 2;
#X floatatom 421 296 5 0 0 0 - - - 0;
#X floatatom 490 296 5 0 0 0 - - - 0;
#N canvas 0 74 1512 800 mix 0;
#X obj 224 395 dac~ 1 2, f 20;
#X obj 223 110 r~ input;
#X obj 222 139 *~;
#X obj 299 111 pack f 10;
#X obj 299 135 line~;
#X obj 59 124 r~ delayL;
#X obj 141 123 r~ delayR;
#X obj 58 150 *~;
#X obj 64 61 pack f 10;
#X obj 64 81 line~;
#X obj 138 152 *~;
#X obj 389 183 *~;
#X obj 408 43 pack f 10;
#X obj 408 67 line~;
#X obj 459 185 *~;
#X obj 389 120 r~ 1-pitchshiftout, f 7;
#X obj 459 105 r~ 2-pitchshiftout, f 10;
#X obj 223 315 *~;
#X obj 364 311 *~;
#X obj 64 38 r delayvol;
#X obj 298 87 r livevol;
#X obj 408 19 r pitchshiftvol;
#X obj 582 232 pack f 10;
#X obj 582 256 line~;
#X obj 582 205 r master;
#X connect 1 0 2 0;
#X connect 2 0 17 0;
#X connect 2 0 18 0;
#X connect 3 0 4 0;
#X connect 4 0 2 1;
#X connect 5 0 7 0;
#X connect 6 0 10 0;
#X connect 7 0 17 0;
#X connect 8 0 9 0;
#X connect 9 0 7 1;
#X connect 9 0 10 1;
#X connect 10 0 18 0;
#X connect 11 0 17 0;
#X connect 12 0 13 0;
#X connect 13 0 11 1;
#X connect 13 0 14 1;
#X connect 14 0 18 0;
#X connect 15 0 11 0;
#X connect 16 0 14 0;
#X connect 17 0 0 0;
#X connect 18 0 0 1;
#X connect 19 0 8 0;
#X connect 20 0 3 0;
#X connect 21 0 12 0;
#X connect 22 0 23 0;
#X connect 23 0 18 1;
#X connect 23 0 17 1;
#X connect 24 0 22 0;
#X restore 41 294 pd mix;
#X obj 231 124 vsl 19 162 0 1 0 0 delayvol empty DELAY 0 -10 0 12 #fcfcfc #000000 #000000 0 1;
#X obj 195 123 vsl 19 162 0 1 0 0 livevol empty LIVE 0 -10 0 12 #fcfcfc #000000 #000000 0 1;
#X obj 339 128 vsl 19 162 0 1 0 0 pitchshiftvol empty PITCHSHIFT 0 -10 0 12 #fcfcfc #000000 #000000 0 1;
#X obj 569 129 vsl 30 162 0 1 0 0 master empty MASTER 0 -10 0 12 #ff0400 #ffe3c6 #000000 0 1;
#X obj 421 124 vsl 19 162 -12 12 0 0 1-transposition empty 1-Transp 0 -9 0 12 #fcfcfc #000000 #000000 0 1;
#X obj 490 124 vsl 19 162 -12 12 0 0 2-transposition empty 2-Transp 0 -9 0 12 #fcfcfc #000000 #000000 0 1;
#X obj 821 253 s fenster;
#X floatatom 821 226 6 0 0 2 Fenster\ in\ msec - - 0;
#X obj 823 167 loadbang;
#X obj 823 190 50;
#X floatatom 186 377 5 0 0 0 - 1-transposition - 0;
#X floatatom 233 376 5 0 0 0 - 2-transposition - 0;
#N canvas 1248 135 1920 873 transp 0;
#X text 333 60 ARM 1: pitch L: -0.5 halftones \, delay L: 200 msec. \, pitch R: +0.5 halftones \, delayR: 150 msec \; ARM 2: pitch L: -1.5 halftones \, delay L: 200 msec. \, pitch R: +1.5 halftones \, delayR: 150 msec \; ARM 3: pitch L: -12 halftones \, delay L: 200 msec. \, pitch R: -7 halftones \, delayR: 150 msec \; ARM 4: pitch L: -12 halftones \, delay L: 200 msec. \, pitch R: +9 halftones \, delayR: 150 msec \; ARM 5: pitch L: -12 halftones \, delay L: 400 msec. \, pitch R: +12 halftones \, delayR: 250 msec \;;
#X msg 39 118 \; 1-transposition -0.5 \; 2-transposition 0.5;
#X msg 34 185 \; 1-transposition -1.5 \; 2-transposition 1.5;
#X text 197 127 ARM 1;
#X text 200 195 ARM 2;
#X text 203 266 ARM 3;
#X msg 37 256 \; 1-transposition -12 \; 2-transposition -7;
#X msg 41 320 \; 1-transposition -12 \; 2-transposition 9;
#X text 207 330 ARM 4;
#X msg 42 385 \; 1-transposition -12 \; 2-transposition 12;
#X text 208 395 ARM 5;
#X obj 43 6 r harmonizer;
#X floatatom 43 29 5 0 0 0 - - - 0;
#X obj 42 60 select 0 1 2 3 4;
#X connect 11 0 12 0;
#X connect 12 0 13 0;
#X connect 13 0 1 0;
#X connect 13 1 2 0;
#X connect 13 2 6 0;
#X connect 13 3 7 0;
#X connect 13 4 9 0;
#X restore 41 270 pd transp;
#X obj 47 369 hradio 25 1 0 5 harmonizer empty HARMONIZER 0 -10 0 12 #fcfcfc #000000 #000000 0;
#X floatatom 47 402 5 0 0 0 - - - 0;
#X connect 6 0 7 0;
#X connect 17 0 10 0;
#X connect 18 0 11 0;
#X connect 20 0 19 0;
#X connect 21 0 22 0;
#X connect 22 0 20 0;
#X connect 26 0 27 0;
