#N canvas 642 126 634 474 12;
#X obj 65 24 inlet;
#X obj 65 54 / 127;
#X obj 124 86 \$3;
#X obj 225 87 \$1;
#X obj 275 89 \$2;
#X obj 228 206 -;
#X floatatom 226 261 5 0 0 0 - - - 0;
#X obj 274 178 t b f;
#X obj 226 232 abs;
#X obj 65 146 pow 1;
#X obj 64 224 *;
#X obj 64 322 +;
#X obj 107 286 \$1;
#X obj 64 258 t f b;
#X obj 64 405 outlet;
#X floatatom 88 368 5 0 0 0 - - - 0;
#X obj 228 33 loadbang;
#X obj 118 117 max 0;
#X connect 0 0 1 0;
#X connect 1 0 9 0;
#X connect 2 0 17 0;
#X connect 3 0 5 0;
#X connect 4 0 7 0;
#X connect 5 0 8 0;
#X connect 6 0 10 1;
#X connect 7 0 5 0;
#X connect 7 1 5 1;
#X connect 8 0 6 0;
#X connect 9 0 10 0;
#X connect 10 0 13 0;
#X connect 11 0 14 0;
#X connect 11 0 15 0;
#X connect 12 0 11 1;
#X connect 13 0 11 0;
#X connect 13 1 12 0;
#X connect 16 0 2 0;
#X connect 16 0 3 0;
#X connect 16 0 4 0;
#X connect 17 0 9 1;
