#N canvas 173 118 1561 887 12;
#X floatatom 166 126 5 0 0 2 Halbton_Transposition - - 0;
#N canvas 675 220 736 470 transp 0;
#X obj 39 174 - 1;
#X obj 39 205 * -1;
#X floatatom 83 175 10 0 0 0 - - - 0;
#X floatatom 84 209 5 0 0 0 - - - 0;
#X obj 40 327 / 0.25;
#X floatatom 40 351 5 0 0 0 - - - 0;
#X floatatom 39 147 5 0 0 0 - - - 0;
#X obj 38 119 pow 2;
#X obj 67 93 / 12;
#X obj 37 67 t b f;
#X msg 37 92 2;
#X obj 82 247 r fenster;
#X obj 82 271 / 1000;
#X obj 82 299 t b f;
#X obj 37 32 inlet;
#X obj 39 383 outlet;
#X text 165 243 fenster (in sek!);
#X text 254 16 Formel für Halbtontransposition zu Abspielgeschwindigkeit:;
#X text 255 33 2 ^ (x/12);
#X text 87 147 -> playback rate;
#X text 130 210 -> inversierter Wert für [phasor~];
#X text 122 329 geteilt durch Fensterdauer;
#X text 254 52 https://en.wikipedia.org/wiki/Twelfth_root_of_two;
#X connect 0 0 1 0;
#X connect 0 0 2 0;
#X connect 1 0 3 0;
#X connect 1 0 4 0;
#X connect 4 0 5 0;
#X connect 5 0 15 0;
#X connect 6 0 0 0;
#X connect 7 0 6 0;
#X connect 8 0 7 1;
#X connect 9 0 10 0;
#X connect 9 1 8 0;
#X connect 10 0 7 0;
#X connect 11 0 12 0;
#X connect 12 0 13 0;
#X connect 13 0 4 0;
#X connect 13 1 4 1;
#X connect 14 0 9 0;
#X restore 166 153 pd transp;
#X obj 403 393 *~;
#X obj 168 398 *~;
#X obj 168 284 -~ 0.5;
#X obj 168 314 *~ -0.5;
#X obj 168 344 cos~;
#X obj 403 303 -~ 0.5;
#X obj 403 333 *~ -0.5;
#X obj 403 363 cos~;
#X obj 402 201 +~ 0.5;
#X obj 402 230 wrap~;
#X obj 168 428 hip~ 5;
#X obj 403 423 hip~ 5;
#X obj 254 313 *~;
#X obj 490 331 *~;
#X obj 272 235 r fenster;
#X obj 272 259 pack f 200;
#X obj 272 283 line~;
#X obj 508 255 r fenster;
#X obj 508 279 pack f 200;
#X obj 508 303 line~;
#X obj 166 182 phasor~;
#X text 451 197 Phasenverschiebung um 180°;
#X text 452 226 wrap zwischen 0 und 1;
#X text 286 309 * Fenstergröße;
#X text 102 345 Envelope;
#X obj 5 34 delwrite~ \$0-delay 10000;
#X obj 254 339 delread4~ \$0-delay 500, f 10;
#X obj 490 361 delread4~ \$0-delay 500, f 9;
#X obj 170 453 +~;
#X obj 5 6 r~ input;
#X obj 547 66 \$1;
#X obj 548 30 bng 19 250 50 0 empty empty empty 0 -10 0 12 #fcfcfc #000000 #000000;
#X floatatom 547 89 5 0 0 0 - - - 0;
#X obj 166 82 r \$1-transposition;
#X obj 170 480 s~ \$1-pitchshiftout;
#X connect 0 0 1 0;
#X connect 1 0 22 0;
#X connect 2 0 13 0;
#X connect 3 0 12 0;
#X connect 4 0 5 0;
#X connect 5 0 6 0;
#X connect 6 0 3 0;
#X connect 7 0 8 0;
#X connect 8 0 9 0;
#X connect 9 0 2 0;
#X connect 10 0 11 0;
#X connect 11 0 7 0;
#X connect 11 0 15 0;
#X connect 12 0 30 0;
#X connect 13 0 30 1;
#X connect 14 0 28 0;
#X connect 15 0 29 0;
#X connect 16 0 17 0;
#X connect 17 0 18 0;
#X connect 18 0 14 1;
#X connect 19 0 20 0;
#X connect 20 0 21 0;
#X connect 21 0 15 1;
#X connect 22 0 4 0;
#X connect 22 0 14 0;
#X connect 22 0 10 0;
#X connect 28 0 3 1;
#X connect 29 0 2 1;
#X connect 30 0 36 0;
#X connect 31 0 27 0;
#X connect 32 0 34 0;
#X connect 33 0 32 0;
#X connect 35 0 0 0;
