#N canvas 75 38 1369 842 12;
#X obj 405 296 noise~;
#X obj 448 5 tgl 19 0 empty empty empty 0 -10 0 12 #fcfcfc #000000 #000000 0 1;
#X obj 463 297 vline~;
#X floatatom 505 39 5 0 0 0 - metro - 0;
#X floatatom 618 294 5 0 0 0 MIDI_NOTE - - 0;
#X floatatom 688 370 20 -0.999 0.999 2 FB - - 0;
#X floatatom 711 412 5 100 20000 2 LOP\ cutoff lop - 0;
#X obj 688 327 / 100;
#X obj 692 292 hsl 162 19 -99.99 99.99 0 0 empty feedback FEEDBACK -2 -10 0 12 #fcfcfc #000000 #000000 0 1;
#N canvas 0 22 450 278 (subpatch) 0;
#X array \$0-array1 441 float 3;
#A 0 0 0 0 0 0 0 0 0 0 0 0 0 0 0 0 0 0 0 0 0 0 0 0 0 0 0 0 0 0 0 0 0 0 0 0 0 0 0 0 0 0 0 0 0 0 0 0 0 0 0 0 0 0 0 0 0 0 0 0 0 0 0 0 0 0 0 0 0 0 0 0 0 0 0 0 0 0 0 0 0 0 0 0 0 0 0 0 0 0 0 0 0 0 0 0 0 0 0 0 0 0 0 0 0 0 0 0 0 0 0 0 0 0 0 0 0 0 0 0 0 0 0 0 0 0 0 0 0 0 0 0 0 0 0 0 0 0 0 0 0 0 0 0 0 0 0 0 0 0 0 0 0 0 0 0 0 0 0 0 0 0 0 0 0 0 0 0 0 0 0 0 0 0 0 0 0 0 0 0 0 0 0 0 0 0 0 0 0 0 0 0 0 0 0 0 0 0 0 0 0 0 0 0 0 0 0 0 0 0 0 0 0 0 0 0 0 0 0 0 0 0 0 0 0 0 0 0 0 0 0 0 0 0 0 0 0 0 0 0 0 0 0 0 0 0 0 0 0 0 0 0 0 0 0 0 0 0 0 0 0 0 0 0 0 0 0 0 0 0 0 0 0 0 0 0 0 0 0 0 0 0 0 0 0 0 0 0 0 0 0 0 0 0 0 0 0 0 0 0 0 0 0 0 0 0 0 0 0 0 0 0 0 0 0 0 0 0 0 0 0 0 0 0 0 0 0 0 0 0 0 0 0 0 0 0 0 0 0 0 0 0 0 0 0 0 0 0 0 0 0 0 0 0 0 0 0 0 0 0 0 0 0 0 0 0 0 0 0 0 0 0 0 0 0 0 0 0 0 0 0 0 0 0 0 0 0 0 0 0 0 0 0 0 0 0 0 0 0 0 0 0 0 0 0 0 0 0 0 0 0 0 0 0 0 0 0 0 0 0 0 0 0 0 0 0 0 0 0 0 0 0 0 0 0 0 0 0 0 0 0 0;
#X coords 0 1 441 -1 200 140 1 0 0;
#X restore 1026 488 graph;
#X obj 828 462 tgl 19 0 empty empty empty 0 -10 0 12 #fcfcfc #000000 #000000 0 1;
#X obj 828 483 metro 10;
#X obj 631 216 spigot;
#X obj 677 187 tgl 19 0 empty randomnote empty 0 -10 0 12 #fcfcfc #000000 #000000 0 1;
#X obj 448 78 metro 500;
#X text 854 36 Der Karplus-Strong-Algorithmus ist ein Verfahren der Klangsynthese \, welches besonders geeignet ist \, um den Klang von Saiteninstrumenten zu simulieren. Der Algorithmus wurde 1983 im Computer Music Journal von Kevin Karplus und Alex Strong vorgestellt.;
#X obj 448 102 t b b;
#N canvas 256 51 1256 681 karplus 0;
#X obj 332 130 expr 1000 / $f1;
#X floatatom 332 164 5 0 0 0 - - - 0;
#X obj 380 477 *~ 0;
#X floatatom 404 438 5 -0.999 0.999 0 - - - 0;
#X floatatom 534 493 5 0 0 0 - - - 0;
#X floatatom 332 76 5 0 0 0 - - - 0;
#X obj 332 106 mtof;
#X obj 331 43 inlet;
#X obj 183 262 inlet~;
#X obj 229 209 outlet~;
#X obj 406 413 inlet;
#X obj 534 467 inlet;
#X obj 354 502 +~;
#X text 452 414 feedback;
#X text 589 473 lowpass cutoff;
#X text 128 263 source;
#X text 376 44 source;
#X obj 329 300 *~ 0.5;
#X obj 452 298 *~ 0.5;
#X obj 330 340 +~;
#X obj 332 188 delread4~ \$0-kp1 10;
#X obj 361 613 delwrite~ \$0-kp1 1000;
#X text 37 491 die blocksize muss gering sein!;
#X text 642 234 hier wird der Input um 1 Sample verzögert;
#X text 641 255 das Original-Signal wird mit dem Verzögerten verglichen und ein Mittelwert erstellt.;
#X text 643 285 Dies soll das Ausschwingen der Saite imitieren.;
#X text 434 529 ein Lowpass zur weiteren Dämpfung / Timbre;
#X obj 354 526 lop~ 10000;
#X obj 354 550 hip~ 50;
#X obj 329 218 s~ sig;
#X obj 325 265 r~ sig;
#X obj 38 516 block~ 1 1 1;
#X connect 0 0 1 0;
#X connect 1 0 20 0;
#X connect 2 0 12 1;
#X connect 3 0 2 1;
#X connect 4 0 27 1;
#X connect 5 0 6 0;
#X connect 6 0 0 0;
#X connect 7 0 5 0;
#X connect 8 0 12 0;
#X connect 10 0 3 0;
#X connect 11 0 4 0;
#X connect 12 0 27 0;
#X connect 17 0 19 0;
#X connect 18 0 19 1;
#X connect 19 0 2 0;
#X connect 20 0 9 0;
#X connect 20 0 29 0;
#X connect 20 0 18 0;
#X connect 27 0 28 0;
#X connect 28 0 21 0;
#X connect 30 0 17 0;
#X restore 596 439 pd karplus;
#X text 705 187 random note on/off;
#X text 854 113 Der Algorithmus basiert auf einem Kreislauf \, in dem Geräuschsamples zirkulieren und dabei einen Filter durchlaufen. In diesen Kreislauf wird initial ein zufälliges Geräusch eingespeist \, welches in jedem Durchlauf einmal vom Filter modifiziert und ausgegeben wird. Der Algorithmus gehört zu den sogenannten waveguiding-Verfahren.;
#X obj 594 507 *~;
#X obj 406 494 hsl 162 19 0 1 0 0 empty empty empty -2 -10 0 12 #fcfcfc #000000 #000000 0 1;
#X obj 403 542 line~;
#X obj 594 558 dac~ 1 2;
#X obj 432 359 *~;
#X obj 829 508 tabwrite~ \$0-array1;
#X text 286 411 etwas abschwächen...;
#X text 299 296 Quelle: Noise;
#X text 329 141 kurzer Envelope;
#X text 737 326 Die Feedback-Menge (zw. -0.999 und 0.999) bestimmt \, wie lange die "Saite" nachklingt;
#X text 23 214 Charakteristisch für die Karplus-Strong-Synthese sind kurze "Noise-Bursts" als Input. Dieser soll das Anzupfen der Saite imitieren.;
#X text 305 176 längerer Envelope;
#N canvas 45 83 566 577 fft 0;
#X obj 19 61 inlet~;
#X obj 95 214 inlet;
#X obj 29 92 rfft~;
#X obj 29 125 *~;
#X obj 60 125 *~;
#X obj 29 155 sqrt~;
#X obj 332 109 block~ 4096 1;
#X obj 29 181 biquad~ 0 0 0 0 1;
#X text 93 93 Fourier series;
#X text 98 146 magnitude;
#X text 96 131 calculate;
#X text 21 3 This subpatch computes the spectrum of the incoming signal with a (rectangular windowed) FFT. FFTs aren't properly introduced until much later.;
#X text 83 61 signal to analyze;
#X text 192 166 delay two samples;
#X text 191 182 for better graphing;
#X obj 16 425 samplerate~;
#X obj 16 402 bng 18 250 50 0 empty empty empty 0 -6 0 8 #fcfcfc #000000 #000000;
#X floatatom 16 472 5 0 0 0 - - - 0;
#X obj 16 448 / 256;
#X obj 16 378 loadbang;
#X floatatom 16 541 5 0 0 0 - - - 0;
#X obj 24 494 s fundamental;
#X obj 16 517 ftom;
#X text 14 319 At load time \, calculate a good choice of fundamental frequency for showing spectra: the 16th bin in a 4096-point spectrum \, so SR*16/4096 or SR/256.;
#X text 145 216 "bang" into this inlet to graph it;
#X floatatom 191 480 5 0 0 0 - - - 0;
#X obj 191 456 / 4096;
#X text 187 425 One bin is SR/4096:;
#X text 72 540 <-just out of curiosity \, here's the fundamental pitch;
#X obj 191 502 s freq-step;
#X obj 95 248 tabwrite~ \$0-sidebands;
#X obj 20 281 tabwrite~ \$0-sidebands;
#X connect 0 0 2 0;
#X connect 0 0 31 0;
#X connect 1 0 30 0;
#X connect 1 0 31 0;
#X connect 2 0 3 0;
#X connect 2 0 3 1;
#X connect 2 1 4 0;
#X connect 2 1 4 1;
#X connect 3 0 5 0;
#X connect 4 0 5 0;
#X connect 5 0 7 0;
#X connect 7 0 30 0;
#X connect 15 0 18 0;
#X connect 15 0 26 0;
#X connect 16 0 15 0;
#X connect 17 0 21 0;
#X connect 17 0 22 0;
#X connect 18 0 17 0;
#X connect 19 0 16 0;
#X connect 22 0 20 0;
#X connect 25 0 29 0;
#X connect 26 0 25 0;
#X restore 694 592 pd fft;
#X text 758 543 graph frequencies;
#X obj 733 566 metro 20;
#X obj 733 545 tgl 15 0 empty empty empty 17 7 0 10 #fcfcfc #000000 #000000 0 1;
#N canvas 0 22 450 300 (subpatch) 0;
#X array \$0-sidebands 200 float 0;
#X coords 0 100 199 -40 200 130 1 0 0;
#X restore 1036 671 graph;
#X text 865 283 Unterschied zwischen positivem und negativem (inharm.) Feedback beachten!;
#X msg 54 646 \; lop 10000 \; randomnote 1 \; feedback 90 \; metro 500;
#X obj 50 594 loadbang;
#X obj 568 251 r note;
#X text 176 616 slap bass;
#X text 306 620 drone;
#X msg 306 645 \; lop 5000 \; randomnote 0 \; note 24 \; feedback -99.9 \; metro 50;
#X text 391 13 START;
#X text 333 494 MASTER;
#X text 756 413 Lowpass: höhere Frequenzanteile werden gedämpft -> aliasing / störfrequenzen werden abgeschwächt;
#X text 450 623 pluck;
#X msg 450 648 \; lop 5000 \; randomnote 0 \; note 60 \; feedback 99.9 \; metro 150;
#X msg 177 645 \; lop 1000 \; randomnote 1 \; feedback 99.9 \; metro 250;
#X obj 632 84 random 2400;
#X obj 632 108 / 100;
#X msg 403 519 \$1 10;
#X msg 441 175 0 \, 0.5 500 \, 0 750 500;
#X msg 462 141 0 \, 1 5 \, 0 1 5;
#X obj 436 409 *~ 0.5;
#X obj 632 143 + 24;
#X connect 0 0 24 0;
#X connect 1 0 14 0;
#X connect 2 0 24 1;
#X connect 3 0 14 1;
#X connect 4 0 17 1;
#X connect 5 0 17 2;
#X connect 6 0 17 3;
#X connect 7 0 5 0;
#X connect 8 0 7 0;
#X connect 10 0 11 0;
#X connect 11 0 25 0;
#X connect 12 0 4 0;
#X connect 13 0 12 1;
#X connect 14 0 16 0;
#X connect 16 0 54 0;
#X connect 16 0 53 0;
#X connect 16 1 50 0;
#X connect 17 0 20 0;
#X connect 17 0 25 0;
#X connect 17 0 32 0;
#X connect 20 0 23 1;
#X connect 20 0 23 0;
#X connect 21 0 52 0;
#X connect 22 0 20 1;
#X connect 24 0 55 0;
#X connect 34 0 32 1;
#X connect 35 0 34 0;
#X connect 39 0 38 0;
#X connect 40 0 4 0;
#X connect 50 0 51 0;
#X connect 51 0 56 0;
#X connect 52 0 22 0;
#X connect 53 0 2 0;
#X connect 55 0 17 0;
#X connect 56 0 12 0;
