#N canvas 681 157 470 484 12;
#X obj 45 148 tgl 20 0 empty empty empty 0 -6 0 8 #fcfcfc #000000 #000000 0 0.992126;
#X obj 45 189 t f b;
#X obj 46 452 dac~;
#X obj 46 415 *~;
#X floatatom 64 337 5 0 0 1 volume - - 0;
#X obj 67 314 hsl 101 15 0 1 0 0 empty set-vol empty -2 -6 0 8 #fcfcfc #000000 #000000 0 1;
#X text 128 291 when the soundfile is done.;
#X text 126 276 last outlet gives a "bang";
#X obj 340 129 loadbang;
#X msg 340 156 \; pd dsp 1 \; set-vol 0.5 \;;
#X text 29 19 Read soundfile from Harddisk;
#X obj 46 252 readsf~ 1;
#X text 125 252 arg: number of channels;
#X text 245 220 open before play;
#X msg 79 148 1;
#X text 113 147 loop;
#X text 27 41 The readsf~ object reads a soundfile into its signal outputs. You must open the soundfile in advance using the "open" message. The object immediately starts reading from the file \, but output will only appear after you send a "1" to start (restart) playback. A "0" stops it.;
#X obj 106 282 bng 15 250 50 0 empty empty empty 17 7 0 10 #fcfcfc #000000 #000000;
#X obj 64 387 line;
#X obj 64 361 pack 0 10;
#X msg 77 220 open ../Sounds/1-4.wav;
#N canvas 208 246 343 323 alternative 0;
#X obj 43 18 tgl 20 0 empty empty empty 0 -6 0 8 #fcfcfc #000000 #000000 0 0.992126;
#X obj 42 290 dac~;
#X obj 42 253 *~;
#X floatatom 60 175 5 0 0 1 volume - - 0;
#X obj 63 152 hsl 101 15 0 1 0 0 empty set-vol empty -2 -6 0 8 #fcfcfc #000000 #000000 0 1;
#X text 123 127 when the soundfile is done.;
#X text 120 111 last outlet gives a "bang";
#X obj 42 87 readsf~ 1;
#X text 121 87 arg: number of channels;
#X msg 77 18 1;
#X text 111 17 loop;
#X obj 102 112 bng 15 250 50 0 empty empty empty 17 7 0 10 #fcfcfc #000000 #000000;
#X obj 60 225 line;
#X obj 60 199 pack 0 10;
#X msg 42 58 open ../Sounds/1-4.wav \, \$1;
#X connect 0 0 14 0;
#X connect 2 0 1 0;
#X connect 2 0 1 1;
#X connect 3 0 13 0;
#X connect 4 0 3 0;
#X connect 7 0 2 0;
#X connect 7 1 9 0;
#X connect 7 1 11 0;
#X connect 9 0 14 0;
#X connect 12 0 2 1;
#X connect 13 0 12 0;
#X connect 14 0 7 0;
#X restore 137 184 pd alternative;
#X connect 0 0 1 0;
#X connect 1 0 11 0;
#X connect 1 1 20 0;
#X connect 3 0 2 0;
#X connect 3 0 2 1;
#X connect 4 0 19 0;
#X connect 5 0 4 0;
#X connect 8 0 9 0;
#X connect 11 0 3 0;
#X connect 11 1 14 0;
#X connect 11 1 17 0;
#X connect 14 0 1 0;
#X connect 18 0 3 1;
#X connect 19 0 18 0;
#X connect 20 0 11 0;
