#N canvas 1067 648 313 404 12;
#X obj 74 142 == 0;
#X obj 74 64 loadbang;
#X obj 46 28 inlet;
#X obj 46 311 f;
#X obj 46 335 outlet;
#X obj 87 89 bng 19 250 50 0 empty empty empty 0 -10 0 12 #fcfcfc #000000 #000000;
#X floatatom 74 168 5 0 0 0 - - - 0;
#X obj 74 220 bng 19 250 50 0 empty empty empty 0 -10 0 12 #fcfcfc #000000 #000000;
#X obj 106 220 bng 19 250 50 0 empty empty empty 0 -10 0 12 #fcfcfc #000000 #000000;
#X obj 106 270 f \$1;
#X obj 74 114 f \$1;
#X obj 74 193 sel 1;
#X text 144 270 value from variable;
#X text 89 28 value set from outside;
#X text 111 247 fixed default value;
#X text 42 365 (c) 2024 AChim Bornhoeft;
#X msg 74 246 100;
#X connect 0 0 6 0;
#X connect 1 0 10 0;
#X connect 2 0 3 0;
#X connect 3 0 4 0;
#X connect 5 0 10 0;
#X connect 6 0 11 0;
#X connect 7 0 16 0;
#X connect 8 0 9 0;
#X connect 9 0 3 0;
#X connect 10 0 0 0;
#X connect 11 0 7 0;
#X connect 11 1 8 0;
#X connect 16 0 3 0;
