#N canvas 576 250 458 704 12;
#X declare -stdpath ./;
#X declare -stdpath ./;
#X floatatom 34 349 8 0 0 0 - - - 0;
#X text 95 351 (MIDI);
#X obj 34 410 mtof;
#X floatatom 34 441 7 0 0 0 - - - 0;
#X obj 139 510 *~;
#X obj 34 383 trigger float bang;
#X obj 157 446 vline~;
#N canvas 246 419 400 253 init 0;
#X obj 70 79 loadbang;
#X obj 124 185 declare -stdpath ./;
#X obj 173 139 array define \$0-wave;
#X obj 70 133 s \$0-wave;
#X text 167 52 Initialize wavetable;
#X msg 70 106 sinesum 512 1 1 1 1 \, normalize;
#X connect 0 0 5 0;
#X connect 5 0 3 0;
#X restore 47 517 pd init;
#X obj 34 466 tabosc4~ \$0-wave;
#X obj 139 586 dac~ 2;
#X obj 53 280 dac~ 1;
#X msg 52 85 open ../Sounds/vl.wav;
#X msg 43 56 open ../Sounds/bcl.wav;
#X msg 32 28 open ../Sounds/fl.wav;
#X obj 32 217 readsf~ 1;
#X obj 32 188 tgl 19 0 empty empty empty 0 -10 0 12 #fcfcfc #000000 #000000 0 1;
#X obj 33 307 sigmund~ -npts 2048 -stabletime 70 -growth 20 -vibrato 0.4 -minpower 20 notes, f 43;
#X msg 60 117 open ../Sounds/vc.wav;
#X obj 32 162 t b a;
#X obj 160 533 hsl 162 19 0 1 0 0 empty empty empty -2 -10 0 12 #fcfcfc #000000 #000000 0 1;
#X obj 139 559 *~;
#N canvas 63 101 394 755 tracking 0;
#X floatatom 33 354 8 0 0 0 - - - 0;
#X text 94 356 (MIDI);
#X obj 33 528 mtof;
#X floatatom 33 559 7 0 0 0 - - - 0;
#X obj 138 628 *~;
#X obj 33 501 trigger float bang;
#X obj 156 564 vline~;
#N canvas 409 540 400 253 init 0;
#X obj 70 79 loadbang;
#X obj 124 185 declare -stdpath ./;
#X text 167 52 Initialize wavetable;
#X obj 173 139 array define \$0-wave1;
#X msg 70 106 sinesum 512 1 1 1 1 \, normalize;
#X obj 70 133 s \$0-wave1;
#X connect 0 0 4 0;
#X connect 4 0 5 0;
#X restore 35 658 pd init;
#X obj 138 704 dac~ 2;
#X obj 53 280 dac~ 1;
#X msg 52 85 open ../Sounds/vl.wav;
#X msg 42 53 open ../Sounds/bcl.wav;
#X msg 32 28 open ../Sounds/fl.wav;
#X obj 32 217 readsf~ 1;
#X obj 32 188 tgl 19 0 empty empty empty 0 -10 0 12 #fcfcfc #000000 #000000 0 1;
#X msg 156 530 0.25 10 \, 0 300 2000;
#X msg 60 117 open ../Sounds/vc.wav;
#X obj 32 162 t b a;
#X obj 159 651 hsl 162 19 0 1 0 0 empty empty empty -2 -10 0 12 #fcfcfc #000000 #000000 0 1;
#X obj 138 677 *~;
#X msg 114 217 0;
#X obj 33 476 spigot;
#X floatatom 185 371 5 0 0 0 - - - 0;
#X obj 185 393 > 0.6;
#X obj 53 252 *~ 0.3;
#X obj 33 320 sigmund~ notes quality;
#X obj 33 584 tabosc4~ \$0-wave1;
#X connect 0 0 21 0;
#X connect 2 0 3 0;
#X connect 3 0 26 0;
#X connect 4 0 19 0;
#X connect 5 0 2 0;
#X connect 5 1 15 0;
#X connect 6 0 4 1;
#X connect 10 0 17 0;
#X connect 11 0 17 0;
#X connect 12 0 17 0;
#X connect 13 0 24 0;
#X connect 13 0 25 0;
#X connect 13 1 20 0;
#X connect 14 0 13 0;
#X connect 15 0 6 0;
#X connect 16 0 17 0;
#X connect 17 0 14 0;
#X connect 17 1 13 0;
#X connect 18 0 19 1;
#X connect 19 0 8 0;
#X connect 20 0 14 0;
#X connect 21 0 5 0;
#X connect 22 0 23 0;
#X connect 23 0 21 1;
#X connect 24 0 9 0;
#X connect 25 0 0 0;
#X connect 25 1 22 0;
#X connect 26 0 4 0;
#X restore 196 243 pd tracking quality;
#X text 197 217 see also:;
#X msg 113 217 0;
#X obj 53 252 *~ 0.3;
#X msg 110 142 open ../Sounds/flute.wav;
#X msg 157 412 0.25 10 \, 0 300 1000;
#X connect 0 0 5 0;
#X connect 2 0 3 0;
#X connect 3 0 8 0;
#X connect 4 0 20 0;
#X connect 5 0 2 0;
#X connect 5 1 26 0;
#X connect 6 0 4 1;
#X connect 8 0 4 0;
#X connect 11 0 18 0;
#X connect 12 0 18 0;
#X connect 13 0 18 0;
#X connect 14 0 24 0;
#X connect 14 0 16 0;
#X connect 14 1 23 0;
#X connect 15 0 14 0;
#X connect 16 0 0 0;
#X connect 17 0 18 0;
#X connect 18 0 15 0;
#X connect 18 1 14 0;
#X connect 19 0 20 1;
#X connect 20 0 9 0;
#X connect 23 0 15 0;
#X connect 24 0 10 0;
#X connect 25 0 18 0;
#X connect 26 0 6 0;
