#N canvas 1036 150 505 662 12;
#X text 127 201 goes down to 0 in 1000 msec;
#X obj 191 547 line~;
#X obj 134 589 *~;
#X obj 119 626 dac~;
#X obj 101 432 t f b b;
#X text 47 25 envelope with;
#X obj 157 26 line;
#X text 203 24 or;
#X obj 236 25 line~;
#X msg 53 386 440;
#X msg 101 386 660;
#X msg 149 386 770;
#X obj 101 545 osc~;
#X text 162 175 after 2 seconds;
#X obj 53 90 bng 15 250 50 0 empty empty empty 0 -6 0 8 #fcfcfc #000000 #000000;
#X msg 77 202 0 1000;
#X floatatom 54 268 5 0 0 0 - - - 0;
#X obj 53 233 line;
#X obj 76 176 del 2000;
#N canvas 0 22 450 300 (subpatch) 0;
#X array array1 100 float 0;
#A color 0;
#A width 1;
#X coords 0 1 99 0 100 70 1;
#X restore 277 244 graph;
#X obj 54 295 tabwrite array1;
#X obj 171 265 f;
#X obj 204 266 + 1;
#X obj 139 266 t b;
#X msg 53 145 1 1000;
#X text 128 143 goes up to 1 in 1000 msec;
#X text 52 327 The same as an amplitude envelope for different sines. Note that the [line] object was replaced by the [line~] object to work in audio rate.;
#X text 50 65 envelope in control rate;
#X msg 317 98 \; array1 const 0;
#X text 318 74 clear array;
#X obj 53 117 t b b b;
#X msg 189 222 0;
#X msg 127 495 1 10;
#X obj 191 465 del 10;
#X msg 191 496 0 2000;
#X connect 1 0 2 1;
#X connect 2 0 3 0;
#X connect 2 0 3 1;
#X connect 4 0 12 0;
#X connect 4 1 32 0;
#X connect 4 2 33 0;
#X connect 9 0 4 0;
#X connect 10 0 4 0;
#X connect 11 0 4 0;
#X connect 12 0 2 0;
#X connect 14 0 30 0;
#X connect 15 0 17 0;
#X connect 16 0 20 0;
#X connect 17 0 16 0;
#X connect 17 0 23 0;
#X connect 18 0 15 0;
#X connect 21 0 22 0;
#X connect 21 0 20 1;
#X connect 22 0 21 1;
#X connect 23 0 21 0;
#X connect 24 0 17 0;
#X connect 30 0 24 0;
#X connect 30 1 18 0;
#X connect 30 2 31 0;
#X connect 31 0 21 1;
#X connect 32 0 1 0;
#X connect 33 0 34 0;
#X connect 34 0 1 0;
