#N canvas 618 151 642 699 12;
#X obj 104 52 env~;
#X obj 104 76 - 100;
#X obj 104 22 bp~ 50 10;
#X obj 165 -40 r q;
#X obj 100 -47 r~ insig;
#X obj 110 128 vsl 19 162 -70 0 0 0 empty empty 160 -8 -8 0 12 #fcfcfc #000000 #000000 0 1;
#X obj 181 523 *~;
#X obj 182 342 dbtorms;
#X floatatom 182 366 5 0 0 0 - - - 0;
#X obj 182 318 + 100;
#X obj 182 389 pack f 10;
#X obj 182 413 line~;
#X obj 200 496 bp~ 50 10;
#X obj 123 -10 r \$1-freq;
#X obj 236 435 r \$1-freq;
#X obj 270 458 r qs;
#X obj 181 563 outlet~;
#X msg 189 248 label \$1;
#X obj 189 201 r \$1-freq;
#X obj 178 109 loadbang;
#X floatatom 107 299 5 0 0 0 - - - 0;
#X obj 199 466 r~ synth;
#X obj 189 224 makefilename %d;
#X msg 178 134 label_pos 0 -10;
#X connect 0 0 1 0;
#X connect 1 0 5 0;
#X connect 2 0 0 0;
#X connect 3 0 2 2;
#X connect 4 0 2 0;
#X connect 5 0 9 0;
#X connect 6 0 16 0;
#X connect 7 0 8 0;
#X connect 8 0 10 0;
#X connect 8 0 20 0;
#X connect 9 0 7 0;
#X connect 10 0 11 0;
#X connect 11 0 6 0;
#X connect 12 0 6 1;
#X connect 13 0 2 1;
#X connect 14 0 12 1;
#X connect 15 0 12 2;
#X connect 17 0 5 0;
#X connect 18 0 22 0;
#X connect 19 0 23 0;
#X connect 21 0 12 0;
#X connect 22 0 17 0;
#X connect 23 0 5 0;
#X coords 0 -1 1 1 50 220 2 100 100;
