#N canvas 706 141 734 813 12;
#X text 165 15 Cut up Audio;
#X text 145 747 (c) 2021 \, Andreq R. Brown \; https://youtu.be/mNjTeWZa0m4?si=I8-6eWPXZyc_1LTK;
#N canvas 0 22 450 278 (subpatch) 0;
#X array sampleData 155648 float 2;
#X coords 0 1 155648 -1 200 140 1;
#X restore 486 62 graph;
#X obj 186 104 bng 19 250 50 0 empty empty empty 0 -10 0 12 #fcfcfc #000000 #000000;
#X obj 186 128 openpanel;
#X msg 186 152 read -resize \$1 sampleData;
#X obj 186 176 soundfiler;
#X floatatom 186 200 7 0 0 0 - - - 0;
#X obj 165 51 loadbang;
#X msg 165 80 read -resize ../Sounds/1-4.wav sampleData;
#X msg 140 583 \$1 \, \$2 \$3;
#X obj 140 609 vline~;
#X obj 140 633 tabread~ sampleData;
#X obj 140 684 *~ 0.6;
#X obj 140 718 dac~;
#X obj 182 658 hsl 162 19 0 1 0 0 empty empty empty -2 -10 0 12 #fcfcfc #000000 #000000 0 1;
#X obj 223 475 / 44.1;
#X obj 140 557 pack f f f, f 12;
#X obj 186 227 t b f, f 7;
#X obj 225 355 expr $f2 / $f1;
#X floatatom 225 379 14 0 0 0 - - - 0;
#X obj 186 278 expr pow(2 \, $f1);
#X floatatom 186 302 5 0 0 0 - - - 0;
#X obj 186 325 t f f, f 6;
#X obj 140 364 random, f 7;
#X obj 140 335 metro;
#X obj 140 309 bng 19 250 50 0 empty empty empty 0 -10 0 12 #fcfcfc #000000 #000000;
#X obj 181 504 + 1;
#X obj 140 430 t f f, f 6;
#X text 238 254 < --- set number of slices;
#X obj 140 499 *;
#X obj 181 533 *;
#X text 218 586 start \, end time (msecs);
#X text 314 278 segments as powers of 2;
#X obj 186 254 nbx 3 17 -1e+37 1e+37 0 0 empty empty empty 0 -10 0 12 #00ff04 #ff0400 #000000 0 256;
#X text 332 356 length of segments (samples);
#X text 277 476 length of segments (msecs);
#X floatatom 140 406 5 0 0 0 - - - 0;
#X text 45 406 segment no.;
#X text 33 491 segment start time (msecs), f 14;
#X text 213 504 < --- end time (no of segments + 1 * segment length), f 31;
#X text 27 336 segment length;
#X connect 3 0 4 0;
#X connect 4 0 5 0;
#X connect 5 0 6 0;
#X connect 6 0 7 0;
#X connect 7 0 18 0;
#X connect 8 0 9 0;
#X connect 9 0 6 0;
#X connect 10 0 11 0;
#X connect 11 0 12 0;
#X connect 12 0 13 0;
#X connect 13 0 14 0;
#X connect 13 0 14 1;
#X connect 15 0 13 1;
#X connect 16 0 17 2;
#X connect 16 0 25 1;
#X connect 17 0 10 0;
#X connect 18 0 34 0;
#X connect 18 1 19 1;
#X connect 19 0 20 0;
#X connect 20 0 16 0;
#X connect 20 0 30 1;
#X connect 20 0 31 1;
#X connect 21 0 22 0;
#X connect 22 0 23 0;
#X connect 23 0 24 1;
#X connect 23 1 19 0;
#X connect 24 0 37 0;
#X connect 25 0 24 0;
#X connect 26 0 25 0;
#X connect 27 0 31 0;
#X connect 28 0 30 0;
#X connect 28 1 27 0;
#X connect 30 0 17 0;
#X connect 31 0 17 1;
#X connect 34 0 21 0;
#X connect 37 0 28 0;
