#N canvas 441 199 564 387 12;
#X obj 100 152 * 0.25;
#X obj 230 152 * -0.25;
#X obj 230 176 + 0.25;
#X obj 100 176 pack f 10;
#X obj 100 200 line~;
#X obj 230 200 pack f 10;
#X obj 230 224 line~;
#X floatatom 99 72 5 0 0 0 - - - 0;
#X obj 100 224 cos~;
#X obj 230 248 cos~;
#X obj 100 248 *~;
#X obj 230 272 *~;
#X obj 153 222 inlet~;
#X obj 99 11 loadbang;
#X obj 100 311 outlet~;
#X obj 307 221 inlet~;
#X obj 103 100 hsl 162 19 0 1 0 0 empty empty empty -2 -10 0 12 #fcfcfc #000000 #000000 0 1;
#X obj 99 36 0;
#X connect 0 0 3 0;
#X connect 1 0 2 0;
#X connect 2 0 5 0;
#X connect 3 0 4 0;
#X connect 4 0 8 0;
#X connect 5 0 6 0;
#X connect 6 0 9 0;
#X connect 7 0 16 0;
#X connect 8 0 10 0;
#X connect 9 0 11 0;
#X connect 10 0 14 0;
#X connect 11 0 14 0;
#X connect 12 0 10 1;
#X connect 13 0 17 0;
#X connect 15 0 11 1;
#X connect 16 0 0 0;
#X connect 16 0 1 0;
#X connect 17 0 7 0;
#X coords 0 -1 1 1 167 19 2 100 100;
