#N canvas 64 101 1049 647 12;
#X text 305 116 name | duration (in ms);
#X obj 122 57 adc~;
#X text 297 345 name | delay;
#X obj 311 474 *~;
#X obj 81 409 hsl 162 19 0 127 0 0 empty empty empty -2 -10 0 12 #fcfcfc #000000 #000000 0 1;
#X obj 78 433 / 127;
#X obj 78 457 pack f 10;
#X obj 78 481 line~;
#X obj 400 578 dac~;
#X msg 194 220 200;
#X msg 240 220 50;
#X msg 296 220 1000;
#X msg 349 220 2000;
#X obj 122 118 delwrite~ delayline 5000;
#X text 718 372 name | delay;
#X obj 426 382 delread~ delayline 500;
#X msg 426 307 200;
#X msg 472 304 50;
#X msg 528 312 1000;
#X msg 581 314 2000;
#X obj 441 476 *~;
#X obj 736 472 hsl 162 19 0 127 0 0 empty empty empty -2 -10 0 12 #fcfcfc #000000 #000000 0 1;
#X obj 733 496 / 127;
#X obj 733 520 pack f 10;
#X obj 733 544 line~;
#X msg 157 220 100;
#X msg 417 276 150;
#X msg 466 274 250;
#X msg 271 220 325;
#X obj 203 29 osc~ 400;
#X obj 203 53 *~ 0.5;
#X obj 181 266 delread~ delayline;
#X obj 284 55 *~ 0.5;
#X obj 284 31 noise~;
#X obj 297 87 s~ orig;
#X obj 197 347 +~;
#X obj 216 316 r~ orig;
#X floatatom 102 192 5 0 0 0 - - - 0;
#X text 414 49 comb filtering;
#X connect 3 0 8 0;
#X connect 4 0 5 0;
#X connect 5 0 6 0;
#X connect 6 0 7 0;
#X connect 7 0 3 1;
#X connect 9 0 31 0;
#X connect 10 0 31 0;
#X connect 11 0 31 0;
#X connect 12 0 31 0;
#X connect 15 0 20 0;
#X connect 16 0 15 0;
#X connect 17 0 15 0;
#X connect 18 0 15 0;
#X connect 19 0 15 0;
#X connect 20 0 8 1;
#X connect 21 0 22 0;
#X connect 22 0 23 0;
#X connect 23 0 24 0;
#X connect 24 0 20 1;
#X connect 25 0 31 0;
#X connect 26 0 15 0;
#X connect 27 0 15 0;
#X connect 28 0 31 0;
#X connect 29 0 30 0;
#X connect 31 0 35 0;
#X connect 32 0 34 0;
#X connect 32 0 13 0;
#X connect 33 0 32 0;
#X connect 35 0 3 0;
#X connect 36 0 35 1;
#X connect 37 0 31 0;
